<svg xmlns="http://www.w3.org/2000/svg" xmlns:xlink="http://www.w3.org/1999/xlink" width="1920" zoomAndPan="magnify" viewBox="0 0 1440 809.999993" height="1080" preserveAspectRatio="xMidYMid meet" version="1.0"><defs><g/></defs><g fill="#2563eb" fill-opacity="1"><g transform="translate(0.820319, 548.625)"><g><path d="M 280.933594 -54.359375 C 291.035156 -30.304688 259.765625 -18.761719 250.628906 -39.445312 L 207.332031 -139.984375 L 80.335938 -139.984375 L 39.445312 -38.964844 C 30.789062 -17.316406 -0.480469 -30.789062 9.140625 -53.878906 L 120.742188 -320.859375 C 122.667969 -325.671875 129.402344 -330.480469 136.136719 -330.480469 L 153.9375 -330.480469 C 161.152344 -330.480469 167.40625 -326.632812 169.8125 -320.859375 Z M 192.902344 -171.734375 L 145.277344 -286.707031 L 94.765625 -171.734375 Z M 192.902344 -171.734375 "/></g></g></g><g fill="#2563eb" fill-opacity="1"><g transform="translate(287.044619, 548.625)"><g><path d="M 238.601562 -140.464844 C 238.601562 -77.929688 192.902344 -27.902344 126.035156 -27.902344 C 63.5 -27.902344 14.429688 -76.007812 14.429688 -139.503906 C 14.429688 -201.078125 63.015625 -250.144531 126.035156 -250.144531 C 157.304688 -250.144531 184.242188 -242.449219 204.445312 -223.207031 L 204.445312 -314.125 C 204.445312 -337.695312 238.601562 -337.695312 238.601562 -314.125 Z M 204.445312 -139.503906 C 204.445312 -182.800781 169.8125 -217.433594 126.035156 -217.433594 C 82.257812 -217.433594 47.625 -181.835938 47.625 -139.503906 C 47.625 -95.246094 81.777344 -60.613281 126.035156 -60.613281 C 169.8125 -60.613281 204.445312 -94.765625 204.445312 -139.503906 Z M 204.445312 -139.503906 "/></g></g></g><g fill="#2563eb" fill-opacity="1"><g transform="translate(551.621641, 548.625)"><g><path d="M 244.855469 -150.085938 C 244.855469 -140.949219 238.601562 -133.25 227.535156 -133.25 L 54.839844 -133.25 C 58.207031 -101.019531 90.4375 -63.980469 132.769531 -63.980469 C 165.480469 -63.980469 194.824219 -76.488281 209.257812 -103.90625 C 218.878906 -120.742188 248.703125 -107.753906 235.714844 -84.664062 C 219.359375 -55.800781 182.316406 -29.824219 132.769531 -29.824219 C 70.714844 -29.824219 21.167969 -79.375 21.167969 -141.429688 C 21.167969 -203.484375 70.234375 -253.511719 132.769531 -253.511719 C 204.925781 -253.511719 244.855469 -188.570312 244.855469 -150.085938 Z M 203.484375 -166.925781 C 192.421875 -198.671875 164.519531 -220.320312 132.769531 -220.320312 C 99.578125 -220.320312 70.234375 -198.191406 59.648438 -166.925781 Z M 203.484375 -166.925781 "/></g></g></g><g fill="#2563eb" fill-opacity="1"><g transform="translate(816.19864, 548.625)"><g><path d="M 333.367188 -45.699219 C 333.367188 -21.648438 299.214844 -21.648438 299.214844 -45.699219 L 299.214844 -156.824219 C 299.214844 -190.976562 281.894531 -218.398438 247.257812 -218.398438 C 214.546875 -218.398438 195.789062 -189.050781 195.789062 -155.378906 L 195.789062 -45.699219 C 195.789062 -21.167969 162.113281 -21.167969 162.113281 -45.699219 L 162.113281 -155.378906 C 162.113281 -188.570312 144.316406 -218.398438 110.160156 -218.398438 C 75.523438 -218.398438 57.726562 -190.976562 57.726562 -156.824219 L 57.726562 -45.699219 C 57.726562 -20.683594 24.535156 -20.683594 24.535156 -45.699219 L 24.535156 -156.824219 C 24.535156 -219.359375 68.789062 -252.070312 109.679688 -252.070312 C 140.464844 -252.070312 163.558594 -235.714844 179.914062 -212.625 C 196.269531 -236.675781 215.511719 -252.070312 246.777344 -252.070312 C 297.769531 -252.070312 333.367188 -218.398438 333.367188 -156.824219 Z M 333.367188 -45.699219 "/></g></g></g><g fill="#2563eb" fill-opacity="1"><g transform="translate(1176.985612, 548.625)"><g><path d="M 234.753906 -40.890625 C 234.753906 48.585938 170.773438 65.902344 125.074219 65.902344 C 88.511719 65.902344 54.839844 50.027344 33.671875 30.304688 C 13.46875 11.546875 36.078125 -10.582031 51.472656 2.40625 C 67.828125 15.875 93.324219 31.75 125.074219 31.75 C 149.605469 31.75 199.15625 27.902344 199.15625 -40.890625 L 199.15625 -51.472656 C 182.800781 -36.078125 157.304688 -28.863281 130.363281 -28.863281 C 70.714844 -28.863281 25.976562 -75.042969 25.976562 -133.25 L 25.976562 -230.421875 C 25.976562 -254.957031 59.167969 -254.957031 59.167969 -230.421875 L 59.167969 -133.25 C 59.167969 -93.324219 89.957031 -63.015625 130.363281 -63.015625 C 169.328125 -63.015625 201.078125 -92.84375 201.078125 -133.25 L 201.078125 -230.421875 C 201.078125 -254.957031 234.753906 -254.957031 234.753906 -230.421875 Z M 234.753906 -40.890625 "/></g></g></g></svg>